<?xml version="1.0" encoding="UTF-8"?>
<svg id="Capa_1" xmlns="http://www.w3.org/2000/svg" version="1.1" viewBox="0 0 32 32">
  <!-- Generator: Adobe Illustrator 29.7.1, SVG Export Plug-In . SVG Version: 2.1.1 Build 8)  -->
  <defs>
    <style>
      .st0 {
        fill: #59b893;
        stroke: #59b893;
        stroke-miterlimit: 10;
      }

      .st1 {
        fill: #fff;
      }
    </style>
  </defs>
  <path class="st0" d="M16,31.2c-8.1,0-14.8-6.8-14.8-15.2S7.9.8,16,.8s14.8,6.8,14.8,15.2-6.7,15.2-14.8,15.2Z"/>
  <path class="st1" d="M9,22.4h1.8v-12.6h-1.8c0-.1,0,12.6,0,12.6h0ZM17.5,22.3c1.1,0,1.9-.1,2.3-.1.4-.1.8-.2,1.3-.4.8-.3,1.5-.8,2.1-1.3.6-.6,1-1.3,1.4-2,.3-.8.5-1.6.5-2.4,0-1.2-.3-2.3-.9-3.3s-1.4-1.7-2.4-2.3c-1-.5-2.4-.8-4.1-.7h-4.2v12.6h4ZM19.4,11.4c.4.1.8.2,1.2.4.5.2.8.5,1.2.8.9.9,1.4,2,1.4,3.3s-.5,2.5-1.3,3.4c-.3.3-.6.5-.9.7s-.8.4-1.3.5-1.2.2-2.1.2h-2.3v-9.4h4.1,0ZM8.5,6.9c0-.7.5-1.2,1.2-1.2s1.3.5,1.3,1.2-.5,1.2-1.2,1.2-1.3-.5-1.3-1.2h0Z"/>
</svg>