<?xml version="1.0" encoding="UTF-8"?>
<svg id="Capa_1" xmlns="http://www.w3.org/2000/svg" version="1.1" viewBox="0 0 292.2 59.4">
  <!-- Generator: Adobe Illustrator 29.6.1, SVG Export Plug-In . SVG Version: 2.1.1 Build 9)  -->
  <defs>
    <style>
      .st0 {
        fill: #59b893;
      }

      .st1 {
        fill: #101921;
      }
    </style>
  </defs>
  <path class="st1" d="M23.2,50.8c-2.6,0-4.9-.4-7.1-1.3-2.2-.9-4.1-2.1-5.7-3.7-1.6-1.6-2.9-3.5-3.8-5.6-.9-2.1-1.3-4.4-1.3-6.9s.4-4.8,1.3-6.9c.9-2.1,2.1-4,3.7-5.5,1.6-1.6,3.5-2.8,5.6-3.7,2.2-.9,4.5-1.3,7.1-1.3s4.9.4,7,1.3c2.2.9,4,2.1,5.7,3.7,1.6,1.6,2.9,3.4,3.8,5.6.9,2.1,1.3,4.4,1.3,6.9s-.4,4.8-1.3,6.9c-.9,2.1-2.1,4-3.7,5.6-1.6,1.6-3.5,2.8-5.6,3.7s-4.5,1.3-7,1.3ZM23.1,43.9c2,0,3.8-.4,5.3-1.3,1.5-.9,2.7-2.2,3.5-3.8.8-1.6,1.2-3.5,1.2-5.6s-.2-3-.7-4.3c-.5-1.3-1.2-2.4-2.1-3.4-.9-.9-2-1.7-3.2-2.2-1.2-.5-2.6-.7-4.1-.7s-3.8.4-5.3,1.3c-1.5.9-2.7,2.1-3.5,3.7s-1.2,3.4-1.2,5.6.2,3.1.7,4.4c.5,1.3,1.2,2.4,2,3.4.9.9,1.9,1.7,3.2,2.2,1.2.5,2.6.8,4.1.8Z"/>
  <path class="st1" d="M50.1,50.7c-2.1,0-4-.4-5.6-1.2s-2.9-1.9-4.1-3.3l5-4.8c.6.8,1.3,1.4,2,1.8.8.4,1.7.6,2.7.6s1.8-.2,2.5-.6c.7-.4,1.3-1,1.7-1.7.4-.8.6-1.7.6-2.8v-22.4h7.6v22c0,2.5-.5,4.7-1.5,6.6-1,1.9-2.5,3.3-4.3,4.3-1.9,1-4.1,1.5-6.6,1.5Z"/>
  <path class="st1" d="M78.2,50.7c-2.8,0-5.2-.5-7.2-1.4-2-.9-3.8-2.3-5.5-4.2l4.9-4.8c1.1,1.2,2.3,2.2,3.6,2.9,1.3.7,2.9,1,4.6,1s2.8-.3,3.7-.9,1.3-1.4,1.3-2.4-.3-1.7-.9-2.3-1.3-1.1-2.3-1.5c-.9-.4-2-.8-3.1-1.2-1.1-.4-2.3-.8-3.4-1.3-1.1-.5-2.2-1.1-3.1-1.9-.9-.8-1.7-1.7-2.3-2.8-.6-1.1-.9-2.6-.9-4.3s.5-3.9,1.5-5.4c1-1.5,2.4-2.6,4.2-3.4,1.8-.8,3.9-1.2,6.2-1.2s4.5.4,6.5,1.2c2,.8,3.6,2,4.9,3.4l-4.9,4.8c-1-1.1-2.1-1.8-3.1-2.4-1-.5-2.2-.8-3.5-.8s-2.4.2-3.1.7c-.8.5-1.2,1.2-1.2,2.1s.3,1.6.9,2.1c.6.5,1.3,1,2.3,1.4.9.4,2,.8,3.1,1.2,1.1.4,2.3.8,3.4,1.3,1.1.5,2.2,1.2,3.1,1.9.9.8,1.7,1.8,2.3,3,.6,1.2.9,2.7.9,4.4,0,3.2-1.2,5.8-3.5,7.6-2.3,1.8-5.5,2.8-9.6,2.8Z"/>
  <path class="st1" d="M92.6,52.8l11.8-38.9h6.4l-11.8,38.9h-6.4Z"/>
  <path class="st0" d="M114.9,50.2V16.3h7.4v33.9h-7.4ZM120.6,50.2v-5.9h8c1.5,0,2.6-.4,3.5-1.3.8-.9,1.2-1.9,1.2-3.2s-.2-1.6-.6-2.3-.9-1.2-1.6-1.6c-.7-.4-1.5-.6-2.5-.6h-8v-5.7h7.3c1.2,0,2.3-.3,3-.9.8-.6,1.2-1.6,1.2-2.9s-.4-2.2-1.2-2.8c-.8-.6-1.8-.9-3-.9h-7.3v-5.9h8.8c2.2,0,4,.4,5.5,1.2,1.5.8,2.7,1.9,3.5,3.2s1.2,2.8,1.2,4.5-.7,3.8-2,5.3c-1.3,1.4-3.3,2.4-6,3l.2-2.5c2.8.5,5,1.6,6.6,3.3,1.6,1.7,2.3,3.7,2.3,6.1s-.5,3.5-1.4,5c-.9,1.5-2.2,2.7-3.9,3.5-1.7.9-3.8,1.3-6.2,1.3h-8.7Z"/>
  <path class="st0" d="M142.9,50.2l13.4-33.9h6.8l13.3,33.9h-8l-10.2-28.1h2.7l-10.3,28.1h-7.8ZM150.5,44v-6.1h18.5v6.1h-18.5ZM156.2,13.7l-2.4-3.5,7.6-7.2,4,5.7-9.3,5Z"/>
  <path class="st0" d="M189.3,50.7c-2.8,0-5.2-.5-7.2-1.4-2-.9-3.8-2.3-5.5-4.2l4.9-4.8c1.1,1.2,2.3,2.2,3.6,2.9,1.3.7,2.9,1,4.6,1s2.8-.3,3.7-.9,1.3-1.4,1.3-2.4-.3-1.7-.9-2.3-1.3-1.1-2.3-1.5c-.9-.4-2-.8-3.1-1.2-1.1-.4-2.3-.8-3.4-1.3-1.1-.5-2.2-1.1-3.1-1.9-.9-.8-1.7-1.7-2.3-2.8-.6-1.1-.9-2.6-.9-4.3s.5-3.9,1.5-5.4c1-1.5,2.4-2.6,4.2-3.4,1.8-.8,3.9-1.2,6.2-1.2s4.5.4,6.5,1.2c2,.8,3.6,2,4.9,3.4l-4.9,4.8c-1-1.1-2.1-1.8-3.1-2.4-1-.5-2.2-.8-3.5-.8s-2.4.2-3.1.7c-.8.5-1.2,1.2-1.2,2.1s.3,1.6.9,2.1c.6.5,1.3,1,2.3,1.4.9.4,2,.8,3.1,1.2,1.1.4,2.3.8,3.4,1.3,1.1.5,2.2,1.2,3.1,1.9.9.8,1.7,1.8,2.3,3,.6,1.2.9,2.7.9,4.4,0,3.2-1.2,5.8-3.5,7.6-2.3,1.8-5.5,2.8-9.6,2.8Z"/>
  <path class="st0" d="M206.9,50.2V16.3h7.5v33.9h-7.5Z"/>
  <path class="st0" d="M236.8,50.7c-2.5,0-4.9-.4-7-1.3-2.2-.9-4-2.1-5.7-3.7-1.6-1.6-2.9-3.5-3.8-5.6-.9-2.1-1.3-4.4-1.3-6.9s.4-4.8,1.3-6.9c.9-2.1,2.1-4,3.7-5.5,1.6-1.6,3.5-2.8,5.6-3.7,2.2-.9,4.5-1.3,7-1.3s5.1.4,7.2,1.3,3.9,2,5.5,3.6l-5,5.1c-.9-1-2-1.7-3.2-2.3-1.3-.5-2.7-.8-4.4-.8s-2.8.2-4.1.7c-1.2.5-2.3,1.2-3.2,2.1-.9.9-1.6,2-2.1,3.4-.5,1.3-.7,2.8-.7,4.3s.2,3.1.7,4.4c.5,1.3,1.2,2.4,2.1,3.4.9.9,1.9,1.6,3.2,2.2,1.2.5,2.6.8,4.1.8s3.2-.3,4.5-.8c1.3-.5,2.4-1.3,3.3-2.3l5.1,5.1c-1.6,1.5-3.5,2.7-5.6,3.6-2.1.9-4.5,1.3-7.3,1.3Z"/>
  <path class="st0" d="M268.4,50.8c-2.6,0-4.9-.4-7.1-1.3-2.2-.9-4.1-2.1-5.7-3.7-1.6-1.6-2.9-3.5-3.8-5.6-.9-2.1-1.3-4.4-1.3-6.9s.4-4.8,1.3-6.9c.9-2.1,2.1-4,3.7-5.5,1.6-1.6,3.5-2.8,5.6-3.7,2.2-.9,4.5-1.3,7.1-1.3s4.9.4,7,1.3c2.2.9,4,2.1,5.7,3.7,1.6,1.6,2.9,3.4,3.8,5.6.9,2.1,1.3,4.4,1.3,6.9s-.4,4.8-1.3,6.9c-.9,2.1-2.1,4-3.7,5.6-1.6,1.6-3.5,2.8-5.6,3.7s-4.5,1.3-7,1.3ZM268.3,43.9c2,0,3.8-.4,5.3-1.3,1.5-.9,2.7-2.2,3.5-3.8.8-1.6,1.2-3.5,1.2-5.6s-.2-3-.7-4.3c-.5-1.3-1.2-2.4-2.1-3.4-.9-.9-2-1.7-3.2-2.2-1.2-.5-2.6-.7-4.1-.7s-3.8.4-5.3,1.3c-1.5.9-2.7,2.1-3.5,3.7s-1.2,3.4-1.2,5.6.2,3.1.7,4.4c.5,1.3,1.2,2.4,2,3.4.9.9,1.9,1.7,3.2,2.2,1.2.5,2.6.8,4.1.8Z"/>
</svg>